<svg xmlns="http://www.w3.org/2000/svg" width="540" height="400" style="display: block"><rect width="100%" height="100%" fill="#0e1316"/>
<g transform="translate(45 45) scale(150)">
<g opacity="1">
<rect x="0" y="0" width="3" height="0.5" style="fill: #20354a"></rect>
<rect x="1" y="1.5" width="2" height="0.5" style="fill: #20354a"></rect>
<rect x="0" y="1" width="0.25" height="1" style="fill: #262b30"></rect>
</g>
<g opacity="1">
<path d="M0.5 0V2M1.5 0V2M2.5 0V2M0 0.5H3M0 1.5H3" style="fill: none; stroke: #1f2c34; stroke-width: 0.006"></path>
<path d="M1 0V2M2 0V2M0 1H3" style="fill: none; stroke: #2f414d; stroke-width: 0.008"></path>
</g>
<g style="fill: none; stroke: #7f97a6; stroke-width: 0.008">
<rect x="0.04" y="0.04" width="0.92" height="0.43"></rect>
<rect x="1.04" y="0.04" width="0.92" height="0.43"></rect>
<rect x="2.04" y="0.04" width="0.92" height="0.43"></rect>
<rect x="0.08" y="0.09" width="0.14" height="0.33" rx="0.03"></rect>
<rect x="1.08" y="0.09" width="0.14" height="0.33" rx="0.03"></rect>
<rect x="2.08" y="0.09" width="0.14" height="0.33" rx="0.03"></rect>
<rect x="1.04" y="1.53" width="0.92" height="0.43"></rect>
<rect x="2.04" y="1.53" width="0.92" height="0.43"></rect>
<rect x="1.78" y="1.58" width="0.14" height="0.33" rx="0.03"></rect>
<rect x="2.78" y="1.58" width="0.14" height="0.33" rx="0.03"></rect>
<rect x="0.04" y="1.04" width="0.18" height="0.92"></rect>
<path d="M0.04 1.27H0.22M0.04 1.5H0.22M0.04 1.73H0.22"></path>
<rect x="1.2" y="0.82" width="0.8" height="0.32" rx="0.03" style="stroke-dasharray: 0.04 0.03"></rect>
<circle cx="1.4" cy="0.66" r="0.07"></circle>
<circle cx="1.8" cy="0.66" r="0.07"></circle>
<circle cx="1.4" cy="1.3" r="0.07"></circle>
<circle cx="1.8" cy="1.3" r="0.07"></circle>
</g>
<path d="M0.75 2H3V0H0V2H0.25" style="fill: none; stroke: #e6ecef; stroke-width: 0.025; stroke-linecap: square"></path>
<path d="M3.07 0.05V1.95" style="fill: none; stroke: #52c4b5; stroke-width: 0.025; stroke-dasharray: 0.07 0.05"></path>
<rect x="0.25" y="1.975" width="0.5" height="0.05" style="fill: #f0a640"></rect>
<path d="M0.43 2.08L0.57 2.08L0.5 2.17Z" style="fill: #f0a640"></path>
<g style="font-family: 'IBM Plex Mono', monospace; font-size: 0.085px; fill: #93a6b1; text-anchor: middle">
<text x="0.5" y="-0.1">A</text>
<text x="1.5" y="-0.1">B</text>
<text x="2.5" y="-0.1">C</text>
<text x="-0.15" y="0.53">1</text>
<text x="-0.15" y="1.53">2</text>
</g>
<g style="font-family: 'IBM Plex Mono', monospace; font-size: 0.08px; fill: #e6ecef; text-anchor: middle">
<text x="0.58" y="0.29">B01·02</text>
<text x="1.58" y="0.29">B03·04</text>
<text x="2.58" y="0.29">B05·06</text>
<text x="1.42" y="1.78">B07·08</text>
<text x="2.42" y="1.78">B09·10</text>
<text x="1.6" y="1.0" style="fill: #93a6b1; font-size: 0.065px">fold table</text>
<text x="0.5" y="2.3" style="fill: #f0a640">S1</text>
<text x="3.18" y="1.0" style="fill: #52c4b5; font-size: 0.065px; text-anchor: start">SPINE</text>
<text x="0.13" y="0.95" style="fill: #93a6b1; font-size: 0.06px">lockers</text>
</g>
</g>
</svg>