<svg xmlns="http://www.w3.org/2000/svg" width="640" height="530" style="display: block"><rect width="100%" height="100%" fill="#0e1316"/>
<g transform="translate(40 44) scale(70)">
<g opacity="1">
<rect x="0" y="0" width="2" height="2" style="fill: #262b30"></rect>
<rect x="2" y="0" width="3" height="2" style="fill: #332c1f"></rect>
<rect x="5" y="1" width="1" height="1" style="fill: #262b30"></rect>
<rect x="5" y="0" width="1" height="1" style="fill: #183b3a"></rect>
<rect x="6" y="0" width="2" height="2" style="fill: #183b3a"></rect>
<rect x="0" y="2" width="5.5" height="4" style="fill: #2a261d"></rect>
<rect x="5.5" y="2" width="2.5" height="4" style="fill: #20354a"></rect>
<rect x="1" y="5.7" width="4.4" height="0.24" style="fill: #23402a"></rect>
</g>
<g opacity="1">
<path d="M0.5 0V6M1.5 0V6M2.5 0V6M3.5 0V6M4.5 0V6M5.5 0V6M6.5 0V6M7.5 0V6M0 0.5H8M0 1.5H8M0 2.5H8M0 3.5H8M0 4.5H8M0 5.5H8" style="fill: none; stroke: #1f2c34; stroke-width: 0.013"></path>
<path d="M1 0V6M2 0V6M3 0V6M4 0V6M5 0V6M6 0V6M7 0V6M0 1H8M0 2H8M0 3H8M0 4H8M0 5H8" style="fill: none; stroke: #2f414d; stroke-width: 0.017"></path>
</g>
<g style="fill: none; stroke: #7f97a6; stroke-width: 0.016">
<rect x="0.04" y="0.04" width="1.9" height="0.35"></rect>
<path d="M0.52 0.04V0.39M0.99 0.04V0.39M1.46 0.04V0.39"></path>
<rect x="2.04" y="0.04" width="2.92" height="0.32"></rect>
<rect x="2.4" y="0.1" width="0.4" height="0.2" rx="0.03"></rect>
<circle cx="3.6" cy="0.2" r="0.08"></circle>
<circle cx="3.88" cy="0.2" r="0.08"></circle>
<rect x="2.6" y="1.0" width="1.8" height="0.45" rx="0.04"></rect>
<circle cx="2.9" cy="1.62" r="0.09"></circle>
<circle cx="3.3" cy="1.62" r="0.09"></circle>
<circle cx="3.7" cy="1.62" r="0.09"></circle>
<circle cx="4.1" cy="1.62" r="0.09"></circle>
<rect x="5.12" y="0.04" width="0.26" height="0.07"></rect>
<ellipse cx="5.25" cy="0.25" rx="0.1" ry="0.14"></ellipse>
<rect x="5.66" y="0.08" width="0.3" height="0.24" rx="0.04"></rect>
<rect x="6.1" y="0.1" width="1.1" height="0.55" rx="0.25"></rect>
<rect x="7.4" y="0.04" width="0.56" height="0.56"></rect>
<path d="M7.4 0.04L7.96 0.6M7.96 0.04L7.4 0.6"></path>
<rect x="6.1" y="1.5" width="0.6" height="0.3"></rect>
<ellipse cx="6.25" cy="1.65" rx="0.09" ry="0.07"></ellipse>
<ellipse cx="6.55" cy="1.65" rx="0.09" ry="0.07"></ellipse>
<rect x="7.84" y="1.42" width="0.12" height="0.26"></rect>
<ellipse cx="7.66" cy="1.55" rx="0.14" ry="0.1"></ellipse>
<path d="M0.6 3.9H2.6V4.3H1.0V5.3H0.6Z"></path>
<rect x="1.3" y="4.6" width="0.8" height="0.4" rx="0.04"></rect>
<circle cx="2.95" cy="4.95" r="0.22"></circle>
<circle cx="3.6" cy="4.95" r="0.22"></circle>
<rect x="3.0" y="2.6" width="1.6" height="0.6" rx="0.06"></rect>
<circle cx="3.27" cy="2.47" r="0.1"></circle>
<circle cx="3.8" cy="2.47" r="0.1"></circle>
<circle cx="4.33" cy="2.47" r="0.1"></circle>
<circle cx="3.27" cy="3.33" r="0.1"></circle>
<circle cx="3.8" cy="3.33" r="0.1"></circle>
<circle cx="4.33" cy="3.33" r="0.1"></circle>
<rect x="6.96" y="3.5" width="1.0" height="1.0"></rect>
<rect x="7.72" y="3.56" width="0.18" height="0.4" rx="0.04"></rect>
<rect x="7.72" y="4.04" width="0.18" height="0.4" rx="0.04"></rect>
<rect x="7.66" y="3.24" width="0.3" height="0.22"></rect>
<rect x="7.66" y="4.54" width="0.3" height="0.22"></rect>
<circle cx="6.2" cy="5.3" r="0.2"></circle>
<rect x="5.54" y="2.04" width="0.92" height="0.2"></rect>
<rect x="5.54" y="2.76" width="0.92" height="0.2"></rect>
</g>
<rect x="2.02" y="0.02" width="2.96" height="1.96" style="fill: none; stroke: #a99bd6; stroke-width: 0.018; stroke-dasharray: 0.1 0.06"></rect>
<path d="M2 0V0.9M5 0V1H5.1M5.55 1H6M6 0V2H6.8M7.25 2H8M5.5 2V3.3M5.5 3.75V6M5.5 2H6M5.5 3H6.5V2.4" style="fill: none; stroke: #9fb2bd; stroke-width: 0.028"></path>
<path d="M0 1.25V0H8V6H7M1 6H0V1.75" style="fill: none; stroke: #e6ecef; stroke-width: 0.042; stroke-linecap: square"></path>
<rect x="1" y="5.96" width="6" height="0.08" style="fill: #7fd3e6"></rect>
<path d="M1 6.12H7" style="fill: none; stroke: #7fd3e6; stroke-width: 0.012"></path>
<path d="M0.05 -0.09H7.95" style="fill: none; stroke: #52c4b5; stroke-width: 0.035; stroke-dasharray: 0.12 0.08"></path>
<rect x="-0.025" y="1.25" width="0.05" height="0.5" style="fill: #f0a640"></rect>
<path d="M-0.08 1.43L-0.08 1.57L-0.17 1.5Z" style="fill: #f0a640"></path>
<g style="font-family: 'IBM Plex Mono', monospace; font-size: 0.16px; fill: #93a6b1; text-anchor: middle">
<text x="0.5" y="-0.24">A</text>
<text x="1.5" y="-0.24">B</text>
<text x="2.5" y="-0.24">C</text>
<text x="3.5" y="-0.24">D</text>
<text x="4.5" y="-0.24">E</text>
<text x="5.5" y="-0.24">F</text>
<text x="6.5" y="-0.24">G</text>
<text x="7.5" y="-0.24">H</text>
<text x="-0.3" y="0.55">1</text>
<text x="-0.3" y="1.55">2</text>
<text x="-0.3" y="2.55">3</text>
<text x="-0.3" y="3.55">4</text>
<text x="-0.3" y="4.55">5</text>
<text x="-0.3" y="5.55">6</text>
</g>
<g style="font-family: 'IBM Plex Mono', monospace; font-size: 0.16px; fill: #e6ecef; text-anchor: middle">
<text x="1" y="1.1">ENTRY</text>
<text x="3.5" y="1.9">GALLEY</text>
<text x="3.5" y="0.78" style="fill: #a99bd6; font-size: 0.13px">MEZZ. STUDY +1U above</text>
<text x="5.5" y="0.85" style="font-size: 0.13px">WC</text>
<text x="6.8" y="1.2">BATH</text>
<text x="1.6" y="2.6">LIVING · 2U HIGH</text>
<text x="7.2" y="2.6">SUITE</text>
<text x="6.0" y="2.58" style="fill: #93a6b1; font-size: 0.11px">walk-in</text>
<text x="3.2" y="5.62" style="fill: #93a6b1; font-size: 0.11px">garden strip</text>
<text x="4" y="6.36" style="fill: #7fd3e6; font-size: 0.13px">VIEWPORT · HULL FACE</text>
<text x="-0.12" y="2.05" style="fill: #f0a640; font-size: 0.14px">W1</text>
<text x="4" y="-0.46" style="fill: #52c4b5; font-size: 0.12px">SPINE · full services</text>
</g>
</g>
</svg>