<svg xmlns="http://www.w3.org/2000/svg" width="540" height="400" style="display: block"><rect width="100%" height="100%" fill="#0e1316"/>
<g transform="translate(45 60) scale(150)">
<g opacity="1">
<rect x="0" y="0" width="3" height="2" style="fill: #4a2440"></rect>
</g>
<g opacity="1">
<path d="M0.5 0V2M1.5 0V2M2.5 0V2M0 0.5H3M0 1.5H3" style="fill: none; stroke: #2a2530; stroke-width: 0.006"></path>
<path d="M1 0V2M2 0V2M0 1H3" style="fill: none; stroke: #3a3440; stroke-width: 0.008"></path>
</g>
<g style="fill: none; stroke: #b59bb0; stroke-width: 0.008">
<rect x="0.3" y="0.04" width="1.4" height="0.07"></rect>
<rect x="0.3" y="0.75" width="1.4" height="0.36" rx="0.05"></rect>
<path d="M0.3 1.0H1.7M0.77 0.75V1.0M1.23 0.75V1.0"></path>
<circle cx="2.35" cy="0.6" r="0.3"></circle>
<circle cx="2.35" cy="0.18" r="0.08"></circle>
<circle cx="2.77" cy="0.6" r="0.08"></circle>
<circle cx="2.35" cy="1.02" r="0.08"></circle>
<circle cx="1.93" cy="0.6" r="0.08"></circle>
<rect x="2.3" y="1.5" width="0.55" height="0.24" rx="0.06"></rect>
<circle cx="2.4" cy="1.62" r="0.07"></circle>
<rect x="2.3" y="1.5" width="0.55" height="0.24" rx="0.06" style="stroke-dasharray: 0.03 0.02"></rect>
<rect x="0.04" y="1.76" width="1.0" height="0.2"></rect>
<path d="M0.29 1.76V1.96M0.54 1.76V1.96M0.79 1.76V1.96"></path>
</g>
<path d="M1.25 2H0V0H3V2H1.75" style="fill: none; stroke: #e6ecef; stroke-width: 0.025; stroke-linecap: square"></path>
<path d="M0.05 -0.07H2.95" style="fill: none; stroke: #52c4b5; stroke-width: 0.022; stroke-dasharray: 0.07 0.05"></path>
<rect x="1.25" y="1.975" width="0.5" height="0.05" style="fill: #f0a640"></rect>
<path d="M1.43 2.08L1.57 2.08L1.5 2.17Z" style="fill: #f0a640"></path>
<g style="font-family: 'IBM Plex Mono', monospace; font-size: 0.085px; fill: #93a6b1; text-anchor: middle">
<text x="0.5" y="-0.16">A</text>
<text x="1.5" y="-0.16">B</text>
<text x="2.5" y="-0.16">C</text>
<text x="-0.15" y="0.53">1</text>
<text x="-0.15" y="1.53">2</text>
</g>
<g style="font-family: 'IBM Plex Mono', monospace; font-size: 0.075px; fill: #e6ecef; text-anchor: middle">
<text x="1.0" y="0.25">SCREEN WALL</text>
<text x="1.0" y="1.24" style="fill: #b59bb0; font-size: 0.065px">sofa · 4</text>
<text x="2.35" y="0.63" style="font-size: 0.065px">GAMES</text>
<text x="2.57" y="1.44" style="fill: #b59bb0; font-size: 0.06px">exercise bike</text>
<text x="0.54" y="1.7" style="fill: #b59bb0; font-size: 0.06px">books · lockers</text>
<text x="1.5" y="2.3" style="fill: #f0a640">S1</text>
<text x="1.5" y="-0.28" style="fill: #52c4b5; font-size: 0.065px">SPINE · power · data</text>
</g>
</g>
</svg>