<svg xmlns="http://www.w3.org/2000/svg" width="600" height="580" style="display: block"><rect width="100%" height="100%" fill="#0e1316"/>
<g transform="translate(70 62) scale(80)">
<g opacity="1">
<rect x="0" y="0" width="6" height="1.5" style="fill: #2d2742"></rect>
<rect x="0" y="2.3" width="6" height="2.2" style="fill: #2d2742"></rect>
<rect x="0" y="4.5" width="2.5" height="1.5" style="fill: #3a2530"></rect>
<rect x="2.5" y="4.5" width="3.5" height="1.5" style="fill: #262b30"></rect>
</g>
<g opacity="1">
<path d="M0.5 0V6M1.5 0V6M2.5 0V6M3.5 0V6M4.5 0V6M5.5 0V6M0 0.5H6M0 1.5H6M0 2.5H6M0 3.5H6M0 4.5H6M0 5.5H6" style="fill: none; stroke: #1f2c34; stroke-width: 0.012"></path>
<path d="M1 0V6M2 0V6M3 0V6M4 0V6M5 0V6M0 1H6M0 2H6M0 3H6M0 4H6M0 5H6" style="fill: none; stroke: #2f414d; stroke-width: 0.016"></path>
</g>
<g style="fill: none; stroke: #7f97a6; stroke-width: 0.014">
<rect x="0.2" y="0.15" width="1.2" height="1.1"></rect>
<path d="M0.6 0.15V1.0M1.0 0.15V1.0"></path>
<rect x="1.6" y="0.15" width="1.2" height="1.1"></rect>
<path d="M2.0 0.15V1.0M2.4 0.15V1.0"></path>
<rect x="3.0" y="0.15" width="1.2" height="1.1"></rect>
<path d="M3.4 0.15V1.0M3.8 0.15V1.0"></path>
<rect x="4.4" y="0.15" width="1.4" height="1.1"></rect>
<circle cx="4.8" cy="0.6" r="0.25"></circle>
<circle cx="5.4" cy="0.6" r="0.25"></circle>
<circle cx="1.0" cy="3.4" r="0.75"></circle>
<circle cx="1.0" cy="3.4" r="0.6"></circle>
<circle cx="2.7" cy="3.4" r="0.75"></circle>
<circle cx="2.7" cy="3.4" r="0.6"></circle>
<rect x="3.8" y="2.6" width="2" height="1.6"></rect>
<path d="M4.3 2.6V4.2M4.8 2.6V4.2M5.3 2.6V4.2"></path>
<rect x="0.3" y="4.7" width="1.9" height="0.35" rx="0.05"></rect>
<circle cx="0.8" cy="5.35" r="0.15"></circle>
<circle cx="1.7" cy="5.35" r="0.15"></circle>
<rect x="2.8" y="4.75" width="0.6" height="0.6"></rect>
<circle cx="3.1" cy="5.05" r="0.2"></circle>
<rect x="3.6" y="4.75" width="0.6" height="0.6"></rect>
<circle cx="3.9" cy="5.05" r="0.2"></circle>
<rect x="4.5" y="5.72" width="1.46" height="0.24"></rect>
</g>
<rect x="0.1" y="1.33" width="5.8" height="0.27" style="fill: none; stroke: #a99bd6; stroke-width: 0.016; stroke-dasharray: 0.08 0.05"></rect>
<path d="M0 4.5H1.8M2.25 4.5H2.5V6" style="fill: none; stroke: #9fb2bd; stroke-width: 0.024"></path>
<path d="M0 1.25V0H6V1.25M6 1.75V6H0.75M0.25 6H0V1.75" style="fill: none; stroke: #e6ecef; stroke-width: 0.036; stroke-linecap: square"></path>
<rect x="0" y="-0.36" width="6" height="0.2" style="fill: #173837; stroke: #52c4b5; stroke-width: 0.02"></rect>
<rect x="-0.03" y="1.25" width="0.06" height="0.5" style="fill: #f0a640"></rect>
<path d="M-0.1 1.43L-0.1 1.57L-0.2 1.5Z" style="fill: #f0a640"></path>
<rect x="5.97" y="1.25" width="0.06" height="0.5" style="fill: #f0a640"></rect>
<path d="M6.1 1.43L6.1 1.57L6.2 1.5Z" style="fill: #f0a640"></path>
<rect x="0.25" y="5.97" width="0.5" height="0.06" style="fill: #f0a640"></rect>
<path d="M0.43 6.1L0.57 6.1L0.5 6.2Z" style="fill: #f0a640"></path>
<g style="font-family: 'IBM Plex Mono', monospace; font-size: 0.14px; fill: #93a6b1; text-anchor: middle">
<text x="0.5" y="-0.5">A</text>
<text x="1.5" y="-0.5">B</text>
<text x="2.5" y="-0.5">C</text>
<text x="3.5" y="-0.5">D</text>
<text x="4.5" y="-0.5">E</text>
<text x="5.5" y="-0.5">F</text>
<text x="-0.42" y="0.55">1</text>
<text x="-0.42" y="1.55">2</text>
<text x="-0.42" y="2.55">3</text>
<text x="-0.42" y="3.55">4</text>
<text x="-0.42" y="4.55">5</text>
<text x="-0.42" y="5.55">6</text>
</g>
<g style="font-family: 'IBM Plex Mono', monospace; font-size: 0.12px; fill: #e6ecef; text-anchor: middle">
<text x="0.8" y="1.18" style="font-size: 0.1px">CO₂ SCRUB A</text>
<text x="2.2" y="1.18" style="font-size: 0.1px">CO₂ SCRUB B</text>
<text x="3.6" y="1.18" style="font-size: 0.1px">CO₂ SCRUB C</text>
<text x="5.1" y="1.18" style="font-size: 0.1px">O₂ ELECTROLYSIS</text>
<text x="5.3" y="1.51" style="fill: #a99bd6; font-size: 0.09px">catwalk +1U</text>
<text x="3" y="2.0" style="fill: #93a6b1; font-size: 0.1px">maintenance aisle · 1.6 m</text>
<text x="1.0" y="3.45">POTABLE</text>
<text x="2.7" y="3.45">GREY</text>
<text x="4.8" y="4.38">WATER RECLAIM</text>
<text x="1.25" y="5.82">CONTROL</text>
<text x="3.5" y="5.55" style="font-size: 0.1px">PUMPS</text>
<text x="5.2" y="5.62" style="fill: #93a6b1; font-size: 0.09px">spares</text>
<text x="-0.12" y="2.02" style="fill: #f0a640">W1</text>
<text x="6.12" y="2.02" style="fill: #f0a640">E1</text>
<text x="0.5" y="6.38" style="fill: #f0a640">S1</text>
<text x="3" y="-0.22" style="fill: #52c4b5; font-size: 0.1px">BLOCK MAIN (above) · air · water · waste</text>
</g>
</g>
</svg>